<?xml version="1.0" encoding="utf-8"?>
<!-- Generator: Adobe Illustrator 24.0.2, SVG Export Plug-In . SVG Version: 6.00 Build 0)  -->
<svg fill="#fff" version="1.1" id="Layer_1" xmlns="http://www.w3.org/2000/svg" xmlns:xlink="http://www.w3.org/1999/xlink" x="0px" y="0px"
	 viewBox="0 0 600 300" style="enable-background:new 0 0 600 300;" xml:space="preserve">
<g>
	<path d="M165.4,104.4c-25.1,0-45.4,20.5-45.4,45.6c0,25.1,20.4,45.6,45.4,45.6c25.1,0,45.4-20.5,45.4-45.6
		C210.9,124.9,190.5,104.4,165.4,104.4z M165.4,189.3c-21.6,0-39.1-17.6-39.1-39.3c0-21.7,17.5-39.3,39.1-39.3
		c21.6,0,39.2,17.6,39.2,39.3S187.1,189.3,165.4,189.3z"/>
	<path d="M195.4,157.6h0.5v1h0.2v-1h0.5v-0.2h-1.2V157.6z"/>
	<path d="M141.1,161.9h-2.6c-0.6,0-0.9-0.3-0.9-1v-1c0-0.3,0.1-0.5,0.2-0.7c0.2-0.2,0.4-0.3,0.6-0.3h2.1c0.5,0,0.8,0.2,1,0.7l0.3,1
		h1.9v-1.1c0-0.7-0.2-1.3-0.7-1.8c-0.5-0.5-1.1-0.7-1.8-0.7h-3c-0.7,0-1.3,0.3-1.9,0.8c-0.5,0.5-0.8,1.1-0.8,1.8v1.8
		c0,0.7,0.3,1.3,0.8,1.9c0.5,0.5,1.1,0.8,1.9,0.8h2.6c0.6,0,0.9,0.3,0.9,1v1.4c0,0.3-0.1,0.5-0.2,0.7c-0.2,0.2-0.4,0.3-0.6,0.3h-2.1
		c-0.5,0-0.8-0.2-1-0.7l-0.3-1.1h-1.9v1.2c0,0.7,0.2,1.4,0.7,1.8c0.5,0.5,1.1,0.7,1.8,0.7h3.1c0.7,0,1.3-0.3,1.8-0.8
		c0.5-0.5,0.8-1.1,0.8-1.9v-2.1c0-0.7-0.3-1.3-0.8-1.8C142.4,162.2,141.8,161.9,141.1,161.9z"/>
	<path d="M151.8,156.9h-5.6v12.3h2.2v-4.5h3.4c0.7,0,1.3-0.3,1.9-0.8c0.5-0.5,0.8-1.1,0.8-1.8v-2.6c0-0.7-0.3-1.3-0.8-1.8
		C153.2,157.2,152.5,156.9,151.8,156.9z M152.3,161.7c0,0.3-0.1,0.5-0.3,0.7c-0.2,0.2-0.4,0.3-0.6,0.3h-3v-3.8h3
		c0.3,0,0.5,0.1,0.6,0.3c0.2,0.2,0.3,0.4,0.3,0.7V161.7z"/>
	<path d="M175.1,163.2c0.3-0.4,0.5-1,0.5-1.5v-2.1c0-0.7-0.3-1.3-0.8-1.8c-0.5-0.5-1.1-0.8-1.9-0.8h-5.4v12.3h2.2v-4.8h2.1l2,4.8
		h2.3l-2.1-5.1C174.3,164,174.7,163.7,175.1,163.2z M173.3,161.5c0,0.3-0.1,0.5-0.2,0.7c-0.2,0.2-0.4,0.3-0.6,0.3h-2.8v-3.5h2.8
		c0.3,0,0.5,0.1,0.6,0.3c0.2,0.2,0.2,0.4,0.2,0.7V161.5z"/>
	<path d="M176.9,158.9h3.1v10.3h2.2v-10.3h3.1v-2h-8.4V158.9z"/>
	<path d="M192.6,161.9h-2.6c-0.6,0-0.9-0.3-0.9-1v-1c0-0.3,0.1-0.5,0.2-0.7c0.1-0.2,0.4-0.3,0.6-0.3h2.1c0.5,0,0.8,0.2,1,0.7l0.3,1
		h1.9v-1.1c0-0.7-0.3-1.3-0.7-1.8c-0.5-0.5-1.1-0.7-1.8-0.7h-3c-0.7,0-1.3,0.3-1.9,0.8c-0.5,0.5-0.8,1.1-0.8,1.8v1.8
		c0,0.7,0.3,1.3,0.8,1.9c0.5,0.5,1.1,0.8,1.9,0.8h2.6c0.6,0,0.9,0.3,0.9,1v1.4c0,0.3-0.1,0.5-0.2,0.7c-0.2,0.2-0.4,0.3-0.6,0.3H190
		c-0.5,0-0.8-0.2-1-0.7l-0.3-1.1h-1.9v1.2c0,0.7,0.3,1.4,0.7,1.8c0.5,0.5,1.1,0.7,1.8,0.7h3.1c0.7,0,1.3-0.3,1.9-0.8
		c0.5-0.5,0.8-1.1,0.8-1.9v-2.1c0-0.7-0.3-1.3-0.8-1.8C193.9,162.2,193.3,161.9,192.6,161.9z"/>
	<path d="M171.8,125.5h-23.4l-3.6,5.7l23.4,0L171.8,125.5z"/>
	<path d="M180.7,142.6h-3.5l-3.6,5.7h10.7l3.6,5.7h6.8l-18.1-28.7l-14.5,23h-15.9l3.6-5.7h9.9l3.6-5.7h-22l-3.6,5.7h5.3l-7.2,11.4
		h29.6l11.2-17.9L180.7,142.6z"/>
	<path d="M197.9,157.3l-0.5,0.7l-0.5-0.7h-0.2v1.2h0.2v-0.7c0,0,0-0.1,0-0.1c0,0,0.1,0.1,0.1,0.1l0.4,0.6h0l0.4-0.6
		c0,0,0-0.1,0.1-0.1c0,0.1,0,0.1,0,0.1v0.7h0.2v-1.2H197.9L197.9,157.3z"/>
	<path d="M162.2,156.9h-2.9c-0.7,0-1.3,0.3-1.9,0.8c-0.5,0.5-0.8,1.1-0.8,1.8v7.1c0,0.7,0.3,1.4,0.8,1.9c0.5,0.5,1.1,0.8,1.9,0.8
		h2.9c0.7,0,1.3-0.3,1.9-0.8c0.5-0.5,0.8-1.1,0.8-1.9v-7.1c0-0.7-0.3-1.3-0.8-1.8C163.6,157.2,163,156.9,162.2,156.9z M162.7,166.3
		c0,0.3-0.1,0.5-0.3,0.7c-0.2,0.2-0.4,0.3-0.6,0.3h-2.1c-0.3,0-0.5-0.1-0.6-0.3c-0.2-0.2-0.2-0.4-0.2-0.7v-6.3
		c0-0.3,0.1-0.5,0.2-0.7c0.2-0.2,0.4-0.3,0.6-0.3h2.1c0.3,0,0.5,0.1,0.6,0.3c0.2,0.2,0.3,0.4,0.3,0.7V166.3z"/>
	<g>
		<path d="M450.7,139.2h1.9l0.7-1.9h-2.6v-1.7h3.2l0.7-1.8h-6.5v8.5h2.6V139.2z"/>
		<path d="M458,133.8h-2.6v8.5h2.6V133.8z"/>
		<path d="M462.4,139.2h1.9l0.7-1.9h-2.6v-1.7h3.2l0.7-1.8h-6.5v8.5h2.6V139.2z"/>
		<path d="M467.5,142.3l0.3-1.1h3l0.3,1.1h2.7l-3.1-8.5H468l-3.1,8.5H467.5z M469.3,136l1.1,3.5h-2.1L469.3,136z"/>
		<path d="M472.9,136c0.1,0.1,0.3,0.2,0.4,0.3c0.1,0.1,0.3,0.1,0.5,0.1c0.2,0,0.3,0,0.5-0.1c0.1-0.1,0.3-0.2,0.4-0.3
			c0.1-0.1,0.2-0.3,0.3-0.4c0.1-0.1,0.1-0.3,0.1-0.5c0-0.2,0-0.3-0.1-0.5c-0.1-0.1-0.2-0.3-0.3-0.4c-0.1-0.1-0.2-0.2-0.4-0.3
			c-0.1-0.1-0.3-0.1-0.5-0.1c-0.2,0-0.3,0-0.5,0.1c-0.1,0.1-0.3,0.2-0.4,0.3c-0.1,0.1-0.2,0.3-0.3,0.4c-0.1,0.1-0.1,0.3-0.1,0.5
			c0,0.2,0,0.3,0.1,0.5C472.7,135.7,472.8,135.8,472.9,136z M472.9,134.7c0-0.1,0.1-0.2,0.2-0.3c0.1-0.1,0.2-0.2,0.3-0.2
			c0.1,0,0.2-0.1,0.4-0.1c0.1,0,0.3,0,0.4,0.1c0.1,0,0.2,0.1,0.3,0.2c0.1,0.1,0.1,0.2,0.2,0.3c0,0.1,0.1,0.3,0.1,0.4
			c0,0.1,0,0.3-0.1,0.4c0,0.1-0.1,0.2-0.2,0.3c-0.1,0.1-0.2,0.2-0.3,0.2c-0.1,0-0.2,0.1-0.4,0.1c-0.1,0-0.2,0-0.4-0.1
			c-0.1,0-0.2-0.1-0.3-0.2c-0.1-0.1-0.2-0.2-0.2-0.3c0-0.1-0.1-0.3-0.1-0.4C472.9,134.9,472.9,134.8,472.9,134.7z"/>
		<path d="M473.6,135.2h0.2l0.4,0.6h0.3l-0.4-0.6c0.1,0,0.2,0,0.3-0.1c0.1-0.1,0.1-0.1,0.1-0.3c0-0.1,0-0.3-0.1-0.3
			c-0.1-0.1-0.2-0.1-0.4-0.1h-0.5v1.4h0.3L473.6,135.2L473.6,135.2z M473.6,134.5h0.2c0,0,0.1,0,0.1,0s0.1,0,0.1,0c0,0,0,0,0.1,0.1
			c0,0,0,0.1,0,0.1c0,0,0,0.1,0,0.1c0,0,0,0-0.1,0.1c0,0-0.1,0-0.1,0c0,0-0.1,0-0.1,0h-0.2V134.5z"/>
		<path d="M450.8,157.3c0.1,0.1,0.3,0.2,0.5,0.3c0.2,0.1,0.4,0.1,0.6,0.1c0.2,0,0.4,0,0.6-0.1c0.2-0.1,0.3-0.2,0.5-0.3
			c0.1-0.1,0.2-0.3,0.3-0.5c0.1-0.2,0.1-0.4,0.1-0.6c0-0.2,0-0.4-0.1-0.6c-0.1-0.2-0.2-0.4-0.3-0.5c-0.1-0.1-0.3-0.2-0.5-0.3
			c-0.2-0.1-0.4-0.1-0.6-0.1c-0.2,0-0.5,0-0.6,0.1c-0.2,0.1-0.3,0.2-0.5,0.3c-0.1,0.1-0.2,0.3-0.3,0.5c-0.1,0.2-0.1,0.4-0.1,0.6
			c0,0.2,0,0.4,0.1,0.6C450.6,157,450.7,157.2,450.8,157.3z M451.3,155.8c0-0.1,0.1-0.2,0.1-0.3c0.1-0.1,0.1-0.2,0.2-0.2
			c0.1,0,0.2-0.1,0.3-0.1c0.1,0,0.2,0,0.3,0.1c0.1,0,0.1,0.1,0.2,0.2c0.1,0.1,0.1,0.2,0.1,0.3c0,0.1,0,0.2,0,0.4c0,0.1,0,0.2,0,0.4
			c0,0.1-0.1,0.2-0.1,0.3c-0.1,0.1-0.1,0.2-0.2,0.2c-0.1,0.1-0.2,0.1-0.3,0.1c-0.1,0-0.2,0-0.3-0.1c-0.1,0-0.1-0.1-0.2-0.2
			c-0.1-0.1-0.1-0.2-0.1-0.3c0-0.1,0-0.2,0-0.4C451.3,156.1,451.3,156,451.3,155.8z"/>
		<path d="M454.8,156.5h1.1v-0.6h-1.1v-0.7h1.2v-0.6h-2v3h0.8V156.5z"/>
		<path d="M457.4,156.5h1.1v-0.6h-1.1v-0.7h1.2v-0.6h-2v3h0.8V156.5z"/>
		<path d="M460,154.7h-0.8v3h0.8V154.7z"/>
		<path d="M461.3,157.4c0.2,0.1,0.3,0.2,0.6,0.3c0.2,0.1,0.4,0.1,0.6,0.1c0.2,0,0.4,0,0.5,0c0.1,0,0.3-0.1,0.4-0.1l0-0.6
			c-0.1,0-0.2,0.1-0.4,0.1c-0.1,0-0.3,0-0.4,0c-0.1,0-0.3,0-0.4-0.1c-0.1,0-0.2-0.1-0.3-0.2c-0.1-0.1-0.1-0.2-0.2-0.3
			c0-0.1-0.1-0.3-0.1-0.4c0-0.1,0-0.3,0.1-0.4c0-0.1,0.1-0.2,0.2-0.3c0.1-0.1,0.2-0.1,0.3-0.2c0.1,0,0.2-0.1,0.4-0.1
			c0.1,0,0.3,0,0.4,0c0.1,0,0.3,0.1,0.4,0.2l0.1-0.6c-0.1,0-0.3-0.1-0.4-0.1c-0.1,0-0.3,0-0.4,0c-0.2,0-0.5,0-0.7,0.1
			c-0.2,0.1-0.4,0.2-0.5,0.3c-0.1,0.1-0.3,0.3-0.4,0.5c-0.1,0.2-0.1,0.4-0.1,0.7c0,0.3,0,0.5,0.1,0.7
			C461,157.1,461.1,157.3,461.3,157.4z"/>
		<path d="M464.7,154.7h-0.8v3h0.8V154.7z"/>
		<path d="M466.2,157.1h1.1l0.2,0.6h0.9l-1.1-3h-1l-1.1,3h0.8L466.2,157.1z M466.8,155.3l0.4,1.2h-0.7L466.8,155.3z"/>
		<path d="M471,157.1h-1.2v-2.4H469v3h2V157.1z"/>
		<path d="M452.5,162.1h-1.2v-2.4h-0.8v3h2V162.1z"/>
		<path d="M453.8,159.7h-0.8v3h0.8V159.7z"/>
		<path d="M455,160.1c-0.1,0.1-0.3,0.3-0.4,0.5c-0.1,0.2-0.1,0.4-0.1,0.7c0,0.3,0,0.5,0.1,0.7c0.1,0.2,0.2,0.4,0.4,0.5
			c0.2,0.1,0.3,0.2,0.6,0.3c0.2,0.1,0.4,0.1,0.6,0.1c0.2,0,0.4,0,0.5,0c0.1,0,0.3-0.1,0.4-0.1l0-0.6c-0.1,0-0.2,0.1-0.4,0.1
			c-0.1,0-0.3,0-0.4,0c-0.1,0-0.3,0-0.4-0.1c-0.1,0-0.2-0.1-0.3-0.2c-0.1-0.1-0.1-0.2-0.2-0.3c0-0.1-0.1-0.3-0.1-0.4
			c0-0.1,0-0.3,0.1-0.4c0-0.1,0.1-0.2,0.2-0.3c0.1-0.1,0.2-0.1,0.3-0.2c0.1,0,0.2-0.1,0.4-0.1c0.1,0,0.3,0,0.4,0
			c0.1,0,0.3,0.1,0.4,0.2l0.1-0.6c-0.1,0-0.3-0.1-0.4-0.1c-0.1,0-0.3,0-0.4,0c-0.2,0-0.5,0-0.7,0.1C455.3,159.9,455.2,160,455,160.1
			z"/>
		<path d="M458.4,161.5h1.2v-0.6h-1.2v-0.6h1.3v-0.6h-2.1v3h2.1v-0.5h-1.3V161.5z"/>
		<path d="M461.2,160.7l1,2h1v-3h-0.7l0,2h0l-1-2h-1v3h0.7L461.2,160.7z"/>
		<path d="M464.2,161.3c0.1,0.1,0.2,0.1,0.3,0.1c0.1,0,0.2,0.1,0.3,0.1c0.1,0,0.2,0.1,0.3,0.1c0.1,0,0.1,0.1,0.1,0.2
			c0,0.1,0,0.1,0,0.2c0,0-0.1,0.1-0.1,0.1c0,0-0.1,0-0.2,0c-0.1,0-0.1,0-0.2,0c-0.2,0-0.3,0-0.4-0.1c-0.1,0-0.2-0.1-0.4-0.1
			l-0.1,0.7c0.1,0,0.3,0.1,0.4,0.1c0.2,0,0.3,0,0.4,0c0.2,0,0.3,0,0.5,0c0.2,0,0.3-0.1,0.4-0.1c0.1-0.1,0.2-0.2,0.3-0.3
			c0.1-0.1,0.1-0.3,0.1-0.5c0-0.2,0-0.3-0.1-0.4c-0.1-0.1-0.1-0.2-0.2-0.3c-0.1-0.1-0.2-0.1-0.3-0.2c-0.1,0-0.2-0.1-0.3-0.1
			c-0.1,0-0.2-0.1-0.3-0.1c-0.1,0-0.1-0.1-0.1-0.2c0-0.1,0-0.1,0.1-0.1c0,0,0.1-0.1,0.1-0.1c0.1,0,0.1,0,0.2,0c0.1,0,0.1,0,0.2,0
			c0.1,0,0.2,0,0.3,0c0.1,0,0.2,0.1,0.3,0.1l0-0.6c-0.1,0-0.2-0.1-0.3-0.1c-0.1,0-0.3,0-0.4,0c-0.1,0-0.3,0-0.5,0
			c-0.1,0-0.3,0.1-0.4,0.2c-0.1,0.1-0.2,0.2-0.3,0.3c-0.1,0.1-0.1,0.3-0.1,0.4s0,0.3,0.1,0.4C464,161.1,464.1,161.2,464.2,161.3z"/>
		<path d="M468.8,160.3v-0.6h-2.1v3h2.1v-0.5h-1.3v-0.7h1.2v-0.6h-1.2v-0.6H468.8z"/>
		<path d="M469.5,159.7v3h1.1c0.3,0,0.5,0,0.7-0.1c0.2-0.1,0.4-0.1,0.5-0.3c0.2-0.1,0.3-0.3,0.4-0.5c0.1-0.2,0.1-0.4,0.1-0.7
			s0-0.5-0.1-0.7c-0.1-0.2-0.2-0.3-0.4-0.4c-0.1-0.1-0.3-0.2-0.5-0.2c-0.2,0-0.4-0.1-0.7-0.1H469.5L469.5,159.7z M471.3,160.6
			c0.2,0.1,0.2,0.4,0.2,0.7c0,0.3-0.1,0.5-0.2,0.7c-0.2,0.2-0.4,0.2-0.7,0.2h-0.3v-1.8h0.3C470.9,160.3,471.2,160.4,471.3,160.6z"/>
		<path d="M451.3,166.7h0.3c0.4,0,0.7-0.1,0.9-0.3c0.2-0.2,0.3-0.4,0.3-0.7c0-0.3-0.1-0.6-0.3-0.7c-0.2-0.2-0.5-0.2-1-0.2h-0.9v3
			h0.8V166.7L451.3,166.7z M451.3,165.3h0.2c0.1,0,0.1,0,0.2,0c0.1,0,0.1,0,0.2,0.1c0,0,0.1,0.1,0.1,0.1c0,0,0,0.1,0,0.2
			c0,0.1,0,0.1,0,0.2c0,0.1-0.1,0.1-0.1,0.1c0,0-0.1,0.1-0.2,0.1c-0.1,0-0.1,0-0.2,0h-0.2V165.3z"/>
		<path d="M455.4,166.7c0-0.1,0-0.1-0.1-0.2c0-0.1-0.1-0.1-0.1-0.1c0,0-0.1-0.1-0.1-0.1v0c0.2,0,0.3-0.1,0.4-0.3
			c0.1-0.1,0.1-0.3,0.1-0.5c0-0.1,0-0.2-0.1-0.3c0-0.1-0.1-0.2-0.2-0.2c-0.1-0.1-0.2-0.1-0.3-0.1c-0.1,0-0.2,0-0.4,0h-1.4v3h0.8
			v-1.2h0.2c0.1,0,0.1,0,0.2,0c0,0,0.1,0,0.1,0.1c0,0,0.1,0.1,0.1,0.2c0,0.1,0.1,0.2,0.1,0.3l0.2,0.5h0.8l-0.3-0.8
			C455.4,166.8,455.4,166.7,455.4,166.7z M454.8,165.8c0,0-0.1,0.1-0.1,0.1c-0.1,0-0.1,0-0.2,0c-0.1,0-0.1,0-0.2,0h-0.2v-0.7h0.2
			c0.1,0,0.1,0,0.2,0c0.1,0,0.1,0,0.2,0c0.1,0,0.1,0.1,0.1,0.1c0,0,0,0.1,0,0.2C454.8,165.7,454.8,165.8,454.8,165.8z"/>
		<path d="M458.8,165.1c-0.1-0.1-0.3-0.2-0.5-0.3c-0.2-0.1-0.4-0.1-0.6-0.1c-0.2,0-0.5,0-0.6,0.1c-0.2,0.1-0.3,0.2-0.5,0.3
			c-0.1,0.1-0.2,0.3-0.3,0.5c-0.1,0.2-0.1,0.4-0.1,0.6c0,0.2,0,0.4,0.1,0.6c0.1,0.2,0.2,0.4,0.3,0.5c0.1,0.1,0.3,0.2,0.5,0.3
			c0.2,0.1,0.4,0.1,0.6,0.1c0.2,0,0.4,0,0.6-0.1c0.2-0.1,0.3-0.2,0.5-0.3c0.1-0.1,0.2-0.3,0.3-0.5c0.1-0.2,0.1-0.4,0.1-0.6
			c0-0.2,0-0.4-0.1-0.6C459,165.4,458.9,165.3,458.8,165.1z M458.3,166.6c0,0.1-0.1,0.2-0.1,0.3c-0.1,0.1-0.1,0.2-0.2,0.2
			c-0.1,0.1-0.2,0.1-0.3,0.1c-0.1,0-0.2,0-0.3-0.1c-0.1,0-0.1-0.1-0.2-0.2c-0.1-0.1-0.1-0.2-0.1-0.3c0-0.1,0-0.2,0-0.4
			c0-0.1,0-0.3,0-0.4c0-0.1,0.1-0.2,0.1-0.3c0.1-0.1,0.1-0.1,0.2-0.2c0.1,0,0.2-0.1,0.3-0.1c0.1,0,0.2,0,0.3,0.1
			c0.1,0,0.1,0.1,0.2,0.2c0.1,0.1,0.1,0.2,0.1,0.3c0,0.1,0,0.2,0,0.4C458.4,166.4,458.4,166.5,458.3,166.6z"/>
		<path d="M462.1,165.1c-0.1-0.1-0.3-0.2-0.5-0.2c-0.2,0-0.4-0.1-0.7-0.1h-1.1v3h1.1c0.3,0,0.5,0,0.7-0.1c0.2-0.1,0.4-0.1,0.5-0.3
			c0.1-0.1,0.3-0.3,0.4-0.5c0.1-0.2,0.1-0.4,0.1-0.7c0-0.3,0-0.5-0.1-0.7C462.4,165.3,462.3,165.2,462.1,165.1z M461.6,166.9
			c-0.2,0.1-0.4,0.2-0.7,0.2h-0.3v-1.8h0.3c0.3,0,0.5,0.1,0.7,0.2c0.2,0.1,0.2,0.4,0.2,0.7C461.8,166.5,461.7,166.8,461.6,166.9z"/>
		<path d="M463.6,167.5c0.1,0.1,0.2,0.2,0.4,0.2c0.2,0,0.3,0.1,0.5,0.1c0.2,0,0.4,0,0.5-0.1c0.2,0,0.3-0.1,0.4-0.2
			c0.1-0.1,0.2-0.2,0.3-0.4c0.1-0.1,0.1-0.3,0.1-0.5v-1.8h-0.8v1.7c0,0.1,0,0.2,0,0.3c0,0.1,0,0.2-0.1,0.2c0,0.1-0.1,0.1-0.2,0.2
			c-0.1,0-0.1,0.1-0.3,0.1c-0.1,0-0.2,0-0.3-0.1c-0.1,0-0.1-0.1-0.1-0.2c0-0.1-0.1-0.2-0.1-0.2c0-0.1,0-0.2,0-0.3v-1.7h-0.8v1.8
			c0,0.2,0,0.4,0.1,0.5C463.4,167.3,463.5,167.4,463.6,167.5z"/>
		<path d="M468.6,167.1c-0.1,0-0.3,0-0.4,0c-0.1,0-0.3,0-0.4-0.1c-0.1,0-0.2-0.1-0.3-0.2c-0.1-0.1-0.1-0.2-0.2-0.3
			c0-0.1-0.1-0.3-0.1-0.4c0-0.1,0-0.3,0.1-0.4c0-0.1,0.1-0.2,0.2-0.3c0.1-0.1,0.2-0.1,0.3-0.2c0.1,0,0.2-0.1,0.4-0.1
			c0.1,0,0.3,0,0.4,0c0.1,0,0.2,0.1,0.4,0.2l0.1-0.6c-0.1,0-0.3-0.1-0.4-0.1c-0.1,0-0.3,0-0.4,0c-0.2,0-0.5,0-0.7,0.1
			c-0.2,0.1-0.4,0.2-0.5,0.3c-0.1,0.1-0.3,0.3-0.4,0.5c-0.1,0.2-0.1,0.4-0.1,0.7c0,0.3,0,0.5,0.1,0.7c0.1,0.2,0.2,0.4,0.4,0.5
			c0.2,0.1,0.3,0.2,0.5,0.3c0.2,0.1,0.4,0.1,0.6,0.1c0.2,0,0.4,0,0.5,0c0.1,0,0.3-0.1,0.4-0.1l0-0.6
			C468.9,167.1,468.8,167.1,468.6,167.1z"/>
		<path d="M469.4,165.3h0.7v2.4h0.8v-2.4h0.7v-0.6h-2.2V165.3z"/>
		<path d="M442.6,126.8v46.9H480v-46.9H442.6z M479.6,173.3H443v-22.8h36.6V173.3z M479.6,150H443v-22.8h36.6V150z"/>
	</g>
	<path d="M225.9,126.8h34.9l-1.8,10.3h-22l-1.5,8.6h17.7l-1.8,10.3h-17.8l-3.1,17.8h-13L225.9,126.8z"/>
	<path d="M265.4,126.8h12.9l-8.3,46.9h-12.9L265.4,126.8z"/>
	<path d="M282.8,126.8h34.9l-1.8,10.3h-22l-1.5,8.6h17.7l-1.8,10.3h-17.8l-3.1,17.8h-13L282.8,126.8z"/>
	<path d="M328.5,126.7H343l7.5,47h-12.8l-1.1-8.2h-16.2l-3.9,8.2H304L328.5,126.7z M335.4,155.6l-2.2-16.9H333l-7.9,16.9H335.4z"/>
	<path d="M360.8,166.6l15.5-14.8c3.4-3.3,8.8-8.3,8.8-12.6c0-2.4-1.8-3.6-4.1-3.6c-4.1,0-5.1,3.5-5.6,6.8h-11.6
		c0.1-0.2,0.4-2.4,0.5-2.6c1.8-9.5,9.8-13.6,19.1-13.6c7.4,0,14.1,3,14.1,11.3c0,9.2-9.4,16.3-15.6,21.9l-4.4,4l-0.1,0.3h16.2
		l-1.8,10.1h-32.3L360.8,166.6z"/>
	<path d="M397.8,166.6l15.5-14.8c3.4-3.3,8.8-8.3,8.8-12.6c0-2.4-1.8-3.6-4.1-3.6c-4.1,0-5.1,3.5-5.6,6.8h-11.6
		c0.1-0.2,0.4-2.4,0.5-2.6c1.8-9.5,9.8-13.6,19.1-13.6c7.4,0,14.1,3,14.1,11.3c0,9.2-9.4,16.3-15.6,21.9l-4.4,4l-0.1,0.3h16.2
		l-1.8,10.1h-32.3L397.8,166.6z"/>
</g>
</svg>
